# xmcd
#
# Track frame offsets: 
#        150
#        21440
#        33172
#        48110
#        64735
#        83660
#        103550
#        115545
#        126885
#        142432
#        160200
#        176490
#        194607
#        205820
#        218365
#        232580
#        250072
#        266107
#        281952
#        313160
#
# Disc length: 4278 seconds
#
# Revision: 1
# Processed by: cddbd v1.5PL3 Copyright (c) Steve Scherf et al.
# Submitted via: ExactAudioCopy v0.90b4
#
DISCID=1c10b414
DTITLE=Various Artist - BASS PATROL! Volume.10 DISC.1
DYEAR=1997
DGENRE=Bass
TTITLE0=2 LIVE CREW - C'MON BABE
TTITLE1=ACID FACTOR - FANTASY
TTITLE2=(CMB)CLASH MONEY BROTHERS - WORK THAT BODY
TTITLE3=DJ BOO feat.NIKKI - LET'S GET NAKED
TTITLE4=CRIMINAL BASS feat.D'NESSA - SPECIAL KINDA LOVE
TTITLE5=JONNY Z - MAMACITA(CLUB MIX)
TTITLE6=THE PUPPIES - I GOTCHA BABY
TTITLE7=SPLACK PACK - TIP 4 THE STRIP
TTITLE8=DJ UNCLE AL - MENEALO
TTITLE9=FIERCE - COOCHY RIDE
TTITLE10=FELIX SAMA - FLAT ON YA BACK
TTITLE11=GODS OF QUAD - FREAK IT(TECHNO MIX)
TTITLE12=HRLF PINT - SLANG IT
TTITLE13=KENNY CAN - GET WIT IT
TTITLE14=FELIX SAMA - DRAMA TIME(MEGA MIX)
TTITLE15=BOOTY JAM - BASS MAGIC
TTITLE16=DEBBIE DEB - THERE'S A PARTY GOIN' ON
TTITLE17=DJ POLO feat.RON JEREMY - FREAK OF THE WEEK
TTITLE18=2 LIVE CREW - BANNED IN THE USA
TTITLE19=Data track
EXTD=
EXTT0=
EXTT1=
EXTT2=
EXTT3=
EXTT4=
EXTT5=
EXTT6=
EXTT7=
EXTT8=
EXTT9=
EXTT10=
EXTT11=
EXTT12=
EXTT13=
EXTT14=
EXTT15=
EXTT16=
EXTT17=
EXTT18=
EXTT19=
PLAYORDER=
